<svg width="375" height="812" viewBox="0 0 375 812" fill="none" xmlns="http://www.w3.org/2000/svg">
<g clip-path="url(#clip0_0_1712)">
<rect width="375" height="812" fill="url(#paint0_linear_0_1712)"/>
<path d="M167.279 5.33398C165.445 5.33398 164.139 6.58789 164.139 8.30469V8.31641C164.139 9.92188 165.275 11.1055 166.898 11.1055C168.059 11.1055 168.797 10.5137 169.107 9.8457H169.225C169.225 9.91016 169.219 9.97461 169.219 10.0391C169.154 11.6562 168.586 12.9688 167.244 12.9688C166.5 12.9688 165.979 12.582 165.756 11.9902L165.738 11.9316H164.25L164.262 11.9961C164.531 13.291 165.691 14.2109 167.244 14.2109C169.371 14.2109 170.654 12.5234 170.654 9.67578V9.66406C170.654 6.61719 169.084 5.33398 167.279 5.33398ZM167.273 9.94531C166.312 9.94531 165.615 9.24219 165.615 8.26367V8.25195C165.615 7.30859 166.359 6.56445 167.291 6.56445C168.229 6.56445 168.961 7.32031 168.961 8.28711V8.29883C168.961 9.25391 168.229 9.94531 167.273 9.94531ZM173.314 8.52148C173.854 8.52148 174.246 8.11133 174.246 7.5957C174.246 7.07422 173.854 6.66992 173.314 6.66992C172.781 6.66992 172.383 7.07422 172.383 7.5957C172.383 8.11133 172.781 8.52148 173.314 8.52148ZM173.314 12.8691C173.854 12.8691 174.246 12.4648 174.246 11.9434C174.246 11.4219 173.854 11.0176 173.314 11.0176C172.781 11.0176 172.383 11.4219 172.383 11.9434C172.383 12.4648 172.781 12.8691 173.314 12.8691ZM180.076 14H181.523V12.377H182.66V11.1289H181.523V5.54492H179.385C178.236 7.29102 177.035 9.23633 175.939 11.1406V12.377H180.076V14ZM177.346 11.1641V11.0762C178.166 9.64062 179.145 8.07617 180.012 6.75195H180.1V11.1641H177.346ZM186.164 14H187.676V5.54492H186.17L183.961 7.09766V8.52148L186.064 7.0332H186.164V14ZM192.756 14H194.338L195.041 11.8145H198.17L198.879 14H200.461L197.461 5.54492H195.756L192.756 14ZM196.559 7.11523H196.658L197.795 10.6484H195.422L196.559 7.11523ZM201.914 14H203.279V7.98828H203.379L205.723 14H206.754L209.098 7.98828H209.203V14H210.562V5.54492H208.828L206.291 12.0488H206.191L203.648 5.54492H201.914V14Z" fill="white"/>
<path opacity="0.35" fill-rule="evenodd" clip-rule="evenodd" d="M345.5 4.5H364.5C365.881 4.5 367 5.61929 367 7V13.5C367 14.8807 365.881 16 364.5 16H345.5C344.119 16 343 14.8807 343 13.5V7C343 5.61929 344.119 4.5 345.5 4.5ZM345.5 5.5C344.672 5.5 344 6.17157 344 7V13.5C344 14.3284 344.672 15 345.5 15H364.5C365.328 15 366 14.3284 366 13.5V7C366 6.17157 365.328 5.5 364.5 5.5H345.5Z" fill="white"/>
<path opacity="0.4" fill-rule="evenodd" clip-rule="evenodd" d="M368 7.7998C368.89 8.25498 369.5 9.18128 369.5 10.2499C369.5 11.3186 368.89 12.2449 368 12.7001V7.7998Z" fill="white"/>
<path fill-rule="evenodd" clip-rule="evenodd" d="M346 6.5H364C364.552 6.5 365 6.94772 365 7.5V13C365 13.5523 364.552 14 364 14H346C345.448 14 345 13.5523 345 13V7.5C345 6.94772 345.448 6.5 346 6.5Z" fill="white"/>
<path d="M311.219 14H312.273V5.54492H311.225L308.975 7.16211V8.27539L311.125 6.7168H311.219V14ZM317.547 14.1992C319.416 14.1992 320.541 12.4941 320.541 9.77539V9.76367C320.541 7.04492 319.416 5.3457 317.547 5.3457C315.678 5.3457 314.564 7.04492 314.564 9.76367V9.77539C314.564 12.4941 315.678 14.1992 317.547 14.1992ZM317.547 13.2793C316.334 13.2793 315.625 11.9316 315.625 9.77539V9.76367C315.625 7.60742 316.334 6.27148 317.547 6.27148C318.76 6.27148 319.48 7.60742 319.48 9.76367V9.77539C319.48 11.9316 318.76 13.2793 317.547 13.2793ZM325.105 14.1992C326.975 14.1992 328.1 12.4941 328.1 9.77539V9.76367C328.1 7.04492 326.975 5.3457 325.105 5.3457C323.236 5.3457 322.123 7.04492 322.123 9.76367V9.77539C322.123 12.4941 323.236 14.1992 325.105 14.1992ZM325.105 13.2793C323.893 13.2793 323.184 11.9316 323.184 9.77539V9.76367C323.184 7.60742 323.893 6.27148 325.105 6.27148C326.318 6.27148 327.039 7.60742 327.039 9.76367V9.77539C327.039 11.9316 326.318 13.2793 325.105 13.2793ZM331.41 9.99219C332.488 9.99219 333.145 9.11328 333.145 7.71289V7.70703C333.145 6.30664 332.488 5.43359 331.41 5.43359C330.332 5.43359 329.682 6.30664 329.682 7.70703V7.71289C329.682 9.11328 330.332 9.99219 331.41 9.99219ZM332.043 14L337.797 5.54492H336.848L331.094 14H332.043ZM331.41 9.29492C330.83 9.29492 330.496 8.70312 330.496 7.71289V7.70703C330.496 6.7168 330.83 6.13086 331.41 6.13086C331.99 6.13086 332.33 6.7168 332.33 7.70703V7.71289C332.33 8.70312 331.99 9.29492 331.41 9.29492ZM337.469 14.1113C338.547 14.1113 339.203 13.2324 339.203 11.832V11.8262C339.203 10.4258 338.547 9.55273 337.469 9.55273C336.391 9.55273 335.74 10.4258 335.74 11.8262V11.832C335.74 13.2324 336.391 14.1113 337.469 14.1113ZM337.469 13.4141C336.889 13.4141 336.555 12.8223 336.555 11.832V11.8262C336.555 10.8359 336.889 10.25 337.469 10.25C338.049 10.25 338.389 10.8359 338.389 11.8262V11.832C338.389 12.8223 338.049 13.4141 337.469 13.4141Z" fill="white"/>
<path fill-rule="evenodd" clip-rule="evenodd" d="M281.269 7.69225C281.1 7.46378 281 7.18107 281 6.875C281 6.11561 281.616 5.5 282.375 5.5C282.647 5.5 282.901 5.57923 283.115 5.7159C282.344 6.20596 281.707 6.88693 281.269 7.69225ZM290.37 10.255C290.37 12.6712 288.411 14.63 285.995 14.63C283.579 14.63 281.62 12.6712 281.62 10.255C281.62 7.83875 283.579 5.88 285.995 5.88C288.411 5.88 290.37 7.83875 290.37 10.255ZM286.38 10.875H284.25V10.12H285.63V7.5H286.38V10.875ZM289.625 5.5C289.35 5.5 289.095 5.58046 288.88 5.71909C289.651 6.21049 290.288 6.89306 290.725 7.70001C290.898 7.4702 291 7.18455 291 6.875C291 6.11561 290.384 5.5 289.625 5.5Z" fill="white"/>
<path fill-rule="evenodd" clip-rule="evenodd" d="M300 9.98336V9.97118L297.044 7.28363L297.716 6.54369L300 8.61972V4.11972L303.993 7.75L301.518 10L303.993 12.25L300 15.8803V11.3348L297.716 13.4108L297.044 12.6709L300 9.98336ZM301 9.11972L302.507 7.75L301 6.38027V9.11972ZM302.507 12.25L301 13.6197V10.8803L302.507 12.25Z" fill="white"/>
<g clip-path="url(#clip1_0_1712)">
<path fill-rule="evenodd" clip-rule="evenodd" d="M20.5 5H21.5C22.0523 5 22.5 5.44772 22.5 6V14C22.5 14.5523 22.0523 15 21.5 15H20.5C19.9477 15 19.5 14.5523 19.5 14V6C19.5 5.44772 19.9477 5 20.5 5Z" fill="white"/>
<path d="M17 7H16C15.4477 7 15 7.44772 15 8V14C15 14.5523 15.4477 15 16 15H17C17.5523 15 18 14.5523 18 14V8C18 7.44772 17.5523 7 17 7Z" fill="white"/>
<path d="M11.5 9H12.5C13.0523 9 13.5 9.44772 13.5 10V14C13.5 14.5523 13.0523 15 12.5 15H11.5C10.9477 15 10.5 14.5523 10.5 14V10C10.5 9.44772 10.9477 9 11.5 9Z" fill="white"/>
<path d="M7 10.5H8C8.55228 10.5 9 10.9477 9 11.5V14C9 14.5523 8.55228 15 8 15H7C6.44772 15 6 14.5523 6 14V11.5C6 10.9477 6.44772 10.5 7 10.5Z" fill="white"/>
<path d="M30.0781 14H31.1328V10.3379H34.877V9.40039H31.1328V6.49414H35.2109V5.54492H30.0781V14ZM37.3055 6.46484C37.6922 6.46484 38.0086 6.14844 38.0086 5.76172C38.0086 5.375 37.6922 5.05859 37.3055 5.05859C36.9187 5.05859 36.6023 5.375 36.6023 5.76172C36.6023 6.14844 36.9187 6.46484 37.3055 6.46484ZM36.7898 14H37.8094V7.68359H36.7898V14ZM42.2828 16.2266C44.0055 16.2266 45.0953 15.3242 45.0953 13.9121V7.68359H44.0758V8.72656H44.0055C43.6187 8.01172 42.9273 7.57227 42.0367 7.57227C40.3844 7.57227 39.3648 8.85547 39.3648 10.625V10.6367C39.3648 12.4062 40.3785 13.6719 42.0133 13.6719C42.8805 13.6719 43.5953 13.2793 43.9937 12.582H44.0875V13.8594C44.0875 14.791 43.4137 15.3242 42.2828 15.3242C41.3746 15.3242 40.8121 14.9844 40.7008 14.5039L40.6949 14.498H39.6402L39.6285 14.5039C39.7867 15.541 40.7594 16.2266 42.2828 16.2266ZM42.2359 12.7695C41.0641 12.7695 40.4078 11.8906 40.4078 10.6367V10.625C40.4078 9.37109 41.0641 8.47461 42.2359 8.47461C43.402 8.47461 44.1109 9.37109 44.1109 10.625V10.6367C44.1109 11.8906 43.4078 12.7695 42.2359 12.7695ZM46.9438 14H47.9633V10.0859C47.9633 9.19531 48.5902 8.47461 49.4164 8.47461C50.2133 8.47461 50.7289 8.96094 50.7289 9.71094V14H51.7484V9.93945C51.7484 9.13672 52.3285 8.47461 53.2074 8.47461C54.098 8.47461 54.5258 8.9375 54.5258 9.86914V14H55.5453V9.63477C55.5453 8.31055 54.8246 7.57227 53.5355 7.57227C52.6625 7.57227 51.9418 8.01172 51.602 8.67969H51.5082C51.2152 8.02344 50.6176 7.57227 49.7621 7.57227C48.9359 7.57227 48.3383 7.96484 48.057 8.64453H47.9633V7.68359H46.9438V14ZM59.0695 14.1113C59.9191 14.1113 60.5812 13.7422 60.9797 13.0684H61.0734V14H62.093V9.67578C62.093 8.36328 61.2316 7.57227 59.6906 7.57227C58.343 7.57227 57.382 8.24023 57.218 9.23047L57.2121 9.26562H58.2316L58.2375 9.24805C58.4016 8.75586 58.8996 8.47461 59.6555 8.47461C60.5988 8.47461 61.0734 8.89648 61.0734 9.67578V10.25L59.2629 10.3613C57.7922 10.4492 56.9602 11.0996 56.9602 12.2246V12.2363C56.9602 13.3848 57.8684 14.1113 59.0695 14.1113ZM58.0031 12.2129V12.2012C58.0031 11.5742 58.425 11.2344 59.3859 11.1758L61.0734 11.0703V11.6445C61.0734 12.5469 60.3176 13.2266 59.2805 13.2266C58.548 13.2266 58.0031 12.8516 58.0031 12.2129Z" fill="white"/>
<path fill-rule="evenodd" clip-rule="evenodd" d="M80.9828 7.52294C79.0717 5.89057 76.6574 5 74.1327 5C71.6006 5 69.1795 5.89589 67.2661 7.53708L67.1036 7.67646C66.9722 7.78918 66.9647 7.98954 67.0873 8.11176L68.2142 9.23557C68.3236 9.34466 68.4985 9.3521 68.6168 9.2527L68.7564 9.13541C70.2633 7.86943 72.1552 7.18035 74.1327 7.18035C76.1035 7.18035 77.9894 7.86472 79.494 9.12283L79.6336 9.23952C79.7519 9.33847 79.9264 9.33084 80.0356 9.22195L81.1627 8.09797C81.2855 7.97558 81.2777 7.77488 81.1459 7.66228L80.9828 7.52294ZM74.1327 8.46979C75.7236 8.46979 77.251 8.99754 78.4953 9.97486L78.6711 10.113C78.8113 10.2231 78.8236 10.4306 78.6974 10.5564L77.5667 11.6841C77.4621 11.7884 77.2966 11.8003 77.178 11.7122L77.0401 11.6098C76.1997 10.9852 75.1864 10.6501 74.1327 10.6501C73.0726 10.6501 72.0533 10.9893 71.2101 11.6211L71.0721 11.7245C70.9535 11.8133 70.7874 11.8016 70.6825 11.697L69.5522 10.5698C69.4262 10.4442 69.4382 10.2373 69.5777 10.1269L69.7526 9.98871C70.9998 9.00267 72.5342 8.46979 74.1327 8.46979ZM74.1327 11.9396C74.7722 11.9396 75.3936 12.1076 75.9411 12.4281L76.163 12.5579C76.3311 12.6563 76.3607 12.8867 76.2228 13.0242L74.3287 14.913C74.2124 15.029 74.0238 15.029 73.9074 14.913L72.0255 13.0363C71.8882 12.8994 71.9169 12.6702 72.0836 12.5711L72.303 12.4406C72.8555 12.1121 73.4848 11.9396 74.1327 11.9396Z" fill="white"/>
</g>
<path d="M53.892 338L43.9034 303.091H51.9659L57.7443 327.347H58.0341L64.4091 303.091H71.3125L77.6705 327.398H77.9773L83.7557 303.091H91.8182L81.8295 338H74.6364L67.9886 315.176H67.7159L61.0852 338H53.892ZM95.7685 338V303.091H119.291V309.176H103.149V317.494H118.081V323.58H103.149V331.915H119.359V338H95.7685ZM131.176 338H123.267L135.318 303.091H144.83L156.864 338H148.955L140.21 311.068H139.938L131.176 338ZM130.682 324.278H149.364V330.04H130.682V324.278ZM155.47 309.176V303.091H184.141V309.176H173.453V338H166.158V309.176H155.47ZM188.862 338V303.091H196.243V317.494H211.226V303.091H218.589V338H211.226V323.58H196.243V338H188.862ZM224.675 338V303.091H248.197V309.176H232.055V317.494H246.987V323.58H232.055V331.915H248.266V338H224.675ZM254.065 338V303.091H267.838C270.474 303.091 272.724 303.562 274.588 304.506C276.463 305.437 277.889 306.761 278.866 308.477C279.855 310.182 280.349 312.187 280.349 314.494C280.349 316.812 279.849 318.807 278.849 320.477C277.849 322.136 276.401 323.409 274.503 324.295C272.616 325.182 270.332 325.625 267.651 325.625H258.429V319.693H266.457C267.866 319.693 269.037 319.5 269.969 319.114C270.901 318.727 271.594 318.148 272.048 317.375C272.514 316.602 272.747 315.642 272.747 314.494C272.747 313.335 272.514 312.358 272.048 311.562C271.594 310.767 270.895 310.165 269.952 309.756C269.02 309.335 267.844 309.125 266.423 309.125H261.446V338H254.065ZM272.918 322.114L281.594 338H273.446L264.957 322.114H272.918ZM64.9716 371.131C64.8352 369.756 64.25 368.687 63.2159 367.926C62.1818 367.165 60.7784 366.784 59.0057 366.784C57.8011 366.784 56.7841 366.955 55.9545 367.295C55.125 367.625 54.4886 368.085 54.0455 368.676C53.6136 369.267 53.3977 369.938 53.3977 370.688C53.375 371.312 53.5057 371.858 53.7898 372.324C54.0852 372.79 54.4886 373.193 55 373.534C55.5114 373.864 56.1023 374.153 56.7727 374.403C57.4432 374.642 58.1591 374.847 58.9205 375.017L62.0568 375.767C63.5795 376.108 64.9773 376.562 66.25 377.131C67.5227 377.699 68.625 378.398 69.5568 379.227C70.4886 380.057 71.2102 381.034 71.7216 382.159C72.2443 383.284 72.5114 384.574 72.5227 386.028C72.5114 388.165 71.9659 390.017 70.8864 391.585C69.8182 393.142 68.2727 394.352 66.25 395.216C64.2386 396.068 61.8125 396.494 58.9716 396.494C56.1534 396.494 53.6989 396.062 51.608 395.199C49.5284 394.335 47.9034 393.057 46.733 391.364C45.5739 389.659 44.9659 387.551 44.9091 385.04H52.0511C52.1307 386.21 52.4659 387.187 53.0568 387.972C53.6591 388.744 54.4602 389.33 55.4602 389.727C56.4716 390.114 57.6136 390.307 58.8864 390.307C60.1364 390.307 61.2216 390.125 62.142 389.761C63.0739 389.398 63.7955 388.892 64.3068 388.244C64.8182 387.597 65.0739 386.852 65.0739 386.011C65.0739 385.227 64.8409 384.568 64.375 384.034C63.9205 383.5 63.25 383.045 62.3636 382.67C61.4886 382.295 60.4148 381.955 59.142 381.648L55.3409 380.693C52.3977 379.977 50.0739 378.858 48.3693 377.335C46.6648 375.812 45.8182 373.761 45.8295 371.182C45.8182 369.068 46.3807 367.222 47.517 365.642C48.6648 364.062 50.2386 362.83 52.2386 361.943C54.2386 361.057 56.5114 360.614 59.0568 360.614C61.6477 360.614 63.9091 361.057 65.8409 361.943C67.7841 362.83 69.2955 364.062 70.375 365.642C71.4545 367.222 72.0114 369.051 72.0455 371.131H64.9716ZM77.4872 396V361.091H101.01V367.176H84.8679V375.494H99.7997V381.58H84.8679V389.915H101.078V396H77.4872ZM106.878 396V361.091H120.651C123.287 361.091 125.537 361.562 127.401 362.506C129.276 363.437 130.702 364.761 131.679 366.477C132.668 368.182 133.162 370.187 133.162 372.494C133.162 374.812 132.662 376.807 131.662 378.477C130.662 380.136 129.213 381.409 127.315 382.295C125.429 383.182 123.145 383.625 120.463 383.625H111.241V377.693H119.27C120.679 377.693 121.849 377.5 122.781 377.114C123.713 376.727 124.406 376.148 124.861 375.375C125.327 374.602 125.56 373.642 125.56 372.494C125.56 371.335 125.327 370.358 124.861 369.562C124.406 368.767 123.707 368.165 122.764 367.756C121.832 367.335 120.656 367.125 119.236 367.125H114.259V396H106.878ZM125.73 380.114L134.406 396H126.259L117.77 380.114H125.73ZM143.747 361.091L152.185 387.614H152.509L160.963 361.091H169.145L157.111 396H147.599L135.548 361.091H143.747ZM180.727 361.091V396H173.347V361.091H180.727ZM217.601 373.312H210.135C209.999 372.347 209.72 371.489 209.3 370.739C208.879 369.977 208.339 369.33 207.68 368.795C207.021 368.261 206.26 367.852 205.396 367.568C204.544 367.284 203.618 367.142 202.618 367.142C200.811 367.142 199.237 367.591 197.896 368.489C196.555 369.375 195.516 370.67 194.777 372.375C194.038 374.068 193.669 376.125 193.669 378.545C193.669 381.034 194.038 383.125 194.777 384.818C195.527 386.511 196.572 387.79 197.913 388.653C199.254 389.517 200.805 389.949 202.567 389.949C203.555 389.949 204.47 389.818 205.311 389.557C206.163 389.295 206.919 388.915 207.578 388.415C208.237 387.903 208.783 387.284 209.214 386.557C209.658 385.83 209.964 385 210.135 384.068L217.601 384.102C217.408 385.705 216.925 387.25 216.152 388.739C215.391 390.216 214.362 391.54 213.067 392.71C211.783 393.869 210.249 394.79 208.464 395.472C206.692 396.142 204.686 396.477 202.447 396.477C199.334 396.477 196.55 395.773 194.095 394.364C191.652 392.955 189.72 390.915 188.3 388.244C186.891 385.574 186.186 382.341 186.186 378.545C186.186 374.739 186.902 371.5 188.334 368.83C189.766 366.159 191.709 364.125 194.163 362.727C196.618 361.318 199.379 360.614 202.447 360.614C204.47 360.614 206.345 360.898 208.072 361.466C209.811 362.034 211.351 362.864 212.692 363.955C214.033 365.034 215.124 366.358 215.964 367.926C216.817 369.494 217.362 371.29 217.601 373.312ZM222.893 396V361.091H246.416V367.176H230.274V375.494H245.206V381.58H230.274V389.915H246.484V396H222.893Z" fill="white"/>
<path d="M76.7315 717.273C75.6577 717.273 74.7173 716.989 73.9105 716.42C73.1037 715.852 72.473 715.06 72.0185 714.043C71.5696 713.026 71.3452 711.841 71.3452 710.489C71.3452 709.142 71.5696 707.963 72.0185 706.952C72.473 705.935 73.1065 705.145 73.919 704.582C74.7315 704.014 75.6776 703.73 76.7571 703.73C77.5526 703.73 78.2145 703.872 78.7429 704.156C79.2713 704.435 79.6946 704.781 80.0128 705.196C80.331 705.611 80.5781 706.014 80.7543 706.406H80.8906V699.545H82.4162V717H80.9332V714.571H80.7543C80.5781 714.969 80.3281 715.378 80.0043 715.798C79.6804 716.213 79.2514 716.562 78.7173 716.847C78.1889 717.131 77.527 717.273 76.7315 717.273ZM76.9105 715.884C77.7571 715.884 78.4787 715.653 79.0753 715.193C79.6719 714.727 80.1264 714.088 80.4389 713.276C80.7571 712.457 80.9162 711.52 80.9162 710.463C80.9162 709.418 80.7599 708.494 80.4474 707.693C80.1349 706.886 79.6804 706.256 79.0838 705.801C78.4872 705.341 77.7628 705.111 76.9105 705.111C76.0355 705.111 75.2969 705.349 74.6946 705.827C74.098 706.298 73.6435 706.937 73.331 707.744C73.0241 708.551 72.8707 709.457 72.8707 710.463C72.8707 711.48 73.027 712.398 73.3395 713.216C73.652 714.034 74.1065 714.685 74.7031 715.168C75.3054 715.645 76.0412 715.884 76.9105 715.884ZM90.3935 717.298C89.6037 717.298 88.8821 717.145 88.2287 716.838C87.5753 716.526 87.0554 716.077 86.669 715.491C86.2827 714.901 86.0895 714.185 86.0895 713.344C86.0895 712.696 86.2116 712.151 86.456 711.707C86.7003 711.264 87.0469 710.901 87.4957 710.616C87.9446 710.332 88.4759 710.108 89.0895 709.943C89.7031 709.778 90.3793 709.651 91.1179 709.56C91.8509 709.469 92.4702 709.389 92.9759 709.321C93.4872 709.253 93.8764 709.145 94.1435 708.997C94.4105 708.849 94.544 708.611 94.544 708.281V707.974C94.544 707.082 94.277 706.381 93.7429 705.869C93.2145 705.352 92.4531 705.094 91.4588 705.094C90.5156 705.094 89.7457 705.301 89.1491 705.716C88.5582 706.131 88.1435 706.619 87.9048 707.182L86.4645 706.662C86.7599 705.946 87.169 705.375 87.6918 704.949C88.2145 704.517 88.7997 704.207 89.4474 704.02C90.0952 703.827 90.7514 703.73 91.4162 703.73C91.9162 703.73 92.4361 703.795 92.9759 703.926C93.5213 704.057 94.027 704.284 94.4929 704.608C94.9588 704.926 95.3366 705.372 95.6264 705.946C95.9162 706.514 96.0611 707.236 96.0611 708.111V717H94.544V714.929H94.4503C94.2685 715.315 93.9986 715.69 93.6406 716.054C93.2827 716.418 92.8338 716.716 92.294 716.949C91.7543 717.182 91.1207 717.298 90.3935 717.298ZM90.598 715.909C91.4048 715.909 92.1037 715.73 92.6946 715.372C93.2855 715.014 93.7401 714.54 94.0582 713.949C94.3821 713.352 94.544 712.696 94.544 711.98V710.088C94.4304 710.196 94.2401 710.293 93.973 710.378C93.7116 710.463 93.4077 710.54 93.0611 710.608C92.7202 710.67 92.3793 710.724 92.0384 710.77C91.6974 710.815 91.3906 710.855 91.1179 710.889C90.3793 710.98 89.7486 711.122 89.2259 711.315C88.7031 711.509 88.3026 711.776 88.0241 712.116C87.7457 712.452 87.6065 712.884 87.6065 713.412C87.6065 714.207 87.8906 714.824 88.4588 715.261C89.027 715.693 89.7401 715.909 90.598 715.909ZM103.003 717L99.0483 703.909H100.651L103.753 714.707H103.864L106.957 703.909H108.568L111.636 714.682H111.756L114.858 703.909H116.46L112.506 717H110.938L107.835 706.27H107.673L104.571 717H103.003ZM120.926 708.818V717H119.409V703.909H120.884V705.963H121.02C121.327 705.293 121.804 704.756 122.452 704.352C123.105 703.943 123.912 703.739 124.872 703.739C125.753 703.739 126.526 703.923 127.19 704.293C127.861 704.656 128.381 705.193 128.75 705.903C129.125 706.614 129.312 707.486 129.312 708.52V717H127.795V708.614C127.795 707.54 127.494 706.69 126.892 706.065C126.295 705.44 125.494 705.128 124.489 705.128C123.801 705.128 123.19 705.276 122.656 705.571C122.122 705.866 121.699 706.293 121.386 706.849C121.08 707.401 120.926 708.057 120.926 708.818ZM140.075 717V703.909H141.6V717H140.075ZM140.85 701.659C140.538 701.659 140.271 701.554 140.049 701.344C139.827 701.128 139.717 700.869 139.717 700.568C139.717 700.267 139.827 700.011 140.049 699.801C140.271 699.585 140.538 699.477 140.85 699.477C141.163 699.477 141.43 699.585 141.651 699.801C141.873 700.011 141.984 700.267 141.984 700.568C141.984 700.869 141.873 701.128 141.651 701.344C141.43 701.554 141.163 701.659 140.85 701.659ZM154.408 706.781L153.018 707.173C152.882 706.781 152.689 706.426 152.439 706.108C152.189 705.79 151.862 705.537 151.459 705.349C151.061 705.162 150.567 705.068 149.976 705.068C149.089 705.068 148.362 705.278 147.794 705.699C147.226 706.119 146.942 706.662 146.942 707.327C146.942 707.889 147.135 708.347 147.521 708.699C147.913 709.045 148.516 709.321 149.328 709.526L151.305 710.011C152.402 710.278 153.223 710.702 153.768 711.281C154.32 711.861 154.595 712.588 154.595 713.463C154.595 714.202 154.391 714.858 153.982 715.432C153.572 716.006 153.001 716.457 152.268 716.787C151.541 717.111 150.697 717.273 149.737 717.273C148.459 717.273 147.405 716.986 146.575 716.412C145.746 715.832 145.214 714.997 144.982 713.906L146.439 713.548C146.626 714.327 146.993 714.915 147.538 715.312C148.089 715.71 148.814 715.909 149.712 715.909C150.717 715.909 151.521 715.685 152.124 715.236C152.726 714.781 153.027 714.213 153.027 713.531C153.027 713.003 152.851 712.56 152.499 712.202C152.146 711.838 151.612 711.571 150.896 711.401L148.757 710.889C147.621 710.616 146.78 710.185 146.234 709.594C145.689 709.003 145.416 708.27 145.416 707.395C145.416 706.673 145.612 706.04 146.004 705.494C146.396 704.943 146.936 704.511 147.624 704.199C148.311 703.886 149.095 703.73 149.976 703.73C151.175 703.73 152.132 704.003 152.848 704.548C153.57 705.088 154.089 705.832 154.408 706.781ZM169.781 717.273C168.61 717.273 167.59 716.98 166.721 716.395C165.857 715.81 165.187 715.009 164.71 713.991C164.232 712.974 163.994 711.815 163.994 710.514C163.994 709.202 164.235 708.034 164.718 707.011C165.207 705.989 165.883 705.187 166.746 704.608C167.61 704.023 168.613 703.73 169.755 703.73C170.63 703.73 171.423 703.901 172.133 704.241C172.843 704.577 173.428 705.051 173.888 705.665C174.354 706.273 174.647 706.983 174.766 707.795H173.232C173.073 707.057 172.69 706.426 172.082 705.903C171.479 705.375 170.712 705.111 169.781 705.111C168.945 705.111 168.207 705.338 167.565 705.793C166.923 706.241 166.42 706.869 166.056 707.676C165.698 708.477 165.519 709.406 165.519 710.463C165.519 711.526 165.695 712.466 166.048 713.284C166.4 714.097 166.894 714.733 167.531 715.193C168.173 715.653 168.923 715.884 169.781 715.884C170.36 715.884 170.888 715.776 171.366 715.56C171.849 715.338 172.252 715.026 172.576 714.622C172.906 714.219 173.127 713.739 173.241 713.182H174.775C174.661 713.972 174.38 714.676 173.931 715.295C173.488 715.909 172.911 716.392 172.201 716.744C171.496 717.097 170.69 717.273 169.781 717.273ZM183.114 717.273C181.984 717.273 180.984 716.986 180.114 716.412C179.251 715.838 178.575 715.045 178.086 714.034C177.597 713.017 177.353 711.844 177.353 710.514C177.353 709.173 177.597 707.994 178.086 706.977C178.575 705.955 179.251 705.159 180.114 704.591C180.984 704.017 181.984 703.73 183.114 703.73C184.245 703.73 185.242 704.017 186.106 704.591C186.969 705.165 187.646 705.96 188.134 706.977C188.629 707.994 188.876 709.173 188.876 710.514C188.876 711.844 188.631 713.017 188.143 714.034C187.654 715.045 186.975 715.838 186.106 716.412C185.242 716.986 184.245 717.273 183.114 717.273ZM183.114 715.884C184.023 715.884 184.793 715.639 185.424 715.151C186.055 714.662 186.532 714.011 186.856 713.199C187.185 712.386 187.35 711.491 187.35 710.514C187.35 709.537 187.185 708.639 186.856 707.821C186.532 707.003 186.055 706.347 185.424 705.852C184.793 705.358 184.023 705.111 183.114 705.111C182.211 705.111 181.441 705.358 180.805 705.852C180.174 706.347 179.694 707.003 179.364 707.821C179.04 708.639 178.879 709.537 178.879 710.514C178.879 711.491 179.04 712.386 179.364 713.199C179.694 714.011 180.174 714.662 180.805 715.151C181.435 715.639 182.205 715.884 183.114 715.884ZM192.206 717V703.909H193.68V705.92H193.817C194.078 705.244 194.513 704.713 195.121 704.327C195.734 703.935 196.47 703.739 197.328 703.739C198.232 703.739 198.973 703.952 199.553 704.378C200.138 704.798 200.575 705.378 200.865 706.116H200.976C201.271 705.389 201.751 704.812 202.416 704.386C203.087 703.955 203.899 703.739 204.854 703.739C206.07 703.739 207.03 704.122 207.734 704.889C208.439 705.651 208.791 706.764 208.791 708.23V717H207.274V708.23C207.274 707.196 207.01 706.42 206.482 705.903C205.953 705.386 205.257 705.128 204.393 705.128C203.393 705.128 202.624 705.435 202.084 706.048C201.544 706.662 201.274 707.44 201.274 708.384V717H199.723V708.094C199.723 707.207 199.476 706.491 198.982 705.946C198.487 705.401 197.791 705.128 196.893 705.128C196.291 705.128 195.749 705.276 195.266 705.571C194.788 705.866 194.411 706.278 194.132 706.807C193.859 707.33 193.723 707.932 193.723 708.614V717H192.206ZM212.825 717V703.909H214.35V717H212.825ZM213.6 701.659C213.288 701.659 213.021 701.554 212.799 701.344C212.577 701.128 212.467 700.869 212.467 700.568C212.467 700.267 212.577 700.011 212.799 699.801C213.021 699.585 213.288 699.477 213.6 699.477C213.913 699.477 214.18 699.585 214.401 699.801C214.623 700.011 214.734 700.267 214.734 700.568C214.734 700.869 214.623 701.128 214.401 701.344C214.18 701.554 213.913 701.659 213.6 701.659ZM219.879 708.818V717H218.362V703.909H219.837V705.963H219.973C220.28 705.293 220.757 704.756 221.405 704.352C222.058 703.943 222.865 703.739 223.825 703.739C224.706 703.739 225.479 703.923 226.143 704.293C226.814 704.656 227.334 705.193 227.703 705.903C228.078 706.614 228.266 707.486 228.266 708.52V717H226.749V708.614C226.749 707.54 226.447 706.69 225.845 706.065C225.249 705.44 224.447 705.128 223.442 705.128C222.754 705.128 222.143 705.276 221.609 705.571C221.075 705.866 220.652 706.293 220.339 706.849C220.033 707.401 219.879 708.057 219.879 708.818ZM237.255 722.182C236.363 722.182 235.582 722.065 234.911 721.832C234.241 721.605 233.675 721.293 233.215 720.895C232.755 720.497 232.397 720.051 232.141 719.557L233.386 718.739C233.573 719.068 233.823 719.392 234.136 719.71C234.454 720.028 234.866 720.293 235.371 720.503C235.883 720.713 236.511 720.818 237.255 720.818C238.414 720.818 239.349 720.528 240.059 719.949C240.775 719.369 241.133 718.469 241.133 717.247V714.298H240.996C240.82 714.696 240.567 715.094 240.238 715.491C239.908 715.884 239.477 716.21 238.942 716.472C238.414 716.733 237.758 716.864 236.974 716.864C235.928 716.864 234.999 716.605 234.187 716.088C233.38 715.571 232.744 714.832 232.278 713.872C231.817 712.906 231.587 711.756 231.587 710.42C231.587 709.097 231.812 707.932 232.261 706.926C232.715 705.92 233.349 705.136 234.161 704.574C234.974 704.011 235.92 703.73 236.999 703.73C237.8 703.73 238.465 703.872 238.994 704.156C239.522 704.435 239.945 704.781 240.263 705.196C240.587 705.611 240.84 706.014 241.022 706.406H241.175V703.909H242.658V717.341C242.658 718.449 242.423 719.361 241.951 720.077C241.479 720.793 240.837 721.321 240.025 721.662C239.212 722.009 238.289 722.182 237.255 722.182ZM237.153 715.474C237.994 715.474 238.712 715.273 239.309 714.869C239.906 714.46 240.363 713.875 240.681 713.114C240.999 712.352 241.158 711.446 241.158 710.395C241.158 709.372 241.002 708.466 240.69 707.676C240.377 706.881 239.923 706.256 239.326 705.801C238.735 705.341 238.011 705.111 237.153 705.111C236.278 705.111 235.539 705.347 234.937 705.818C234.335 706.29 233.88 706.926 233.573 707.727C233.266 708.523 233.113 709.412 233.113 710.395C233.113 711.395 233.269 712.278 233.582 713.045C233.894 713.807 234.352 714.403 234.954 714.835C235.556 715.261 236.289 715.474 237.153 715.474ZM262.22 706.781L260.831 707.173C260.695 706.781 260.501 706.426 260.251 706.108C260.001 705.79 259.675 705.537 259.271 705.349C258.874 705.162 258.379 705.068 257.788 705.068C256.902 705.068 256.175 705.278 255.607 705.699C255.038 706.119 254.754 706.662 254.754 707.327C254.754 707.889 254.947 708.347 255.334 708.699C255.726 709.045 256.328 709.321 257.141 709.526L259.118 710.011C260.214 710.278 261.036 710.702 261.581 711.281C262.132 711.861 262.408 712.588 262.408 713.463C262.408 714.202 262.203 714.858 261.794 715.432C261.385 716.006 260.814 716.457 260.081 716.787C259.354 717.111 258.51 717.273 257.55 717.273C256.271 717.273 255.217 716.986 254.388 716.412C253.558 715.832 253.027 714.997 252.794 713.906L254.251 713.548C254.439 714.327 254.805 714.915 255.351 715.312C255.902 715.71 256.626 715.909 257.524 715.909C258.53 715.909 259.334 715.685 259.936 715.236C260.538 714.781 260.839 714.213 260.839 713.531C260.839 713.003 260.663 712.56 260.311 712.202C259.959 711.838 259.425 711.571 258.709 711.401L256.57 710.889C255.433 710.616 254.592 710.185 254.047 709.594C253.501 709.003 253.229 708.27 253.229 707.395C253.229 706.673 253.425 706.04 253.817 705.494C254.209 704.943 254.749 704.511 255.436 704.199C256.124 703.886 256.908 703.73 257.788 703.73C258.987 703.73 259.945 704.003 260.661 704.548C261.382 705.088 261.902 705.832 262.22 706.781ZM270.817 717.273C269.687 717.273 268.687 716.986 267.817 716.412C266.954 715.838 266.278 715.045 265.789 714.034C265.3 713.017 265.056 711.844 265.056 710.514C265.056 709.173 265.3 707.994 265.789 706.977C266.278 705.955 266.954 705.159 267.817 704.591C268.687 704.017 269.687 703.73 270.817 703.73C271.948 703.73 272.945 704.017 273.809 704.591C274.673 705.165 275.349 705.96 275.837 706.977C276.332 707.994 276.579 709.173 276.579 710.514C276.579 711.844 276.335 713.017 275.846 714.034C275.357 715.045 274.678 715.838 273.809 716.412C272.945 716.986 271.948 717.273 270.817 717.273ZM270.817 715.884C271.727 715.884 272.496 715.639 273.127 715.151C273.758 714.662 274.235 714.011 274.559 713.199C274.888 712.386 275.053 711.491 275.053 710.514C275.053 709.537 274.888 708.639 274.559 707.821C274.235 707.003 273.758 706.347 273.127 705.852C272.496 705.358 271.727 705.111 270.817 705.111C269.914 705.111 269.144 705.358 268.508 705.852C267.877 706.347 267.397 707.003 267.067 707.821C266.744 708.639 266.582 709.537 266.582 710.514C266.582 711.491 266.744 712.386 267.067 713.199C267.397 714.011 267.877 714.662 268.508 715.151C269.138 715.639 269.908 715.884 270.817 715.884ZM284.997 717.273C283.866 717.273 282.866 716.986 281.997 716.412C281.134 715.838 280.457 715.045 279.969 714.034C279.48 713.017 279.236 711.844 279.236 710.514C279.236 709.173 279.48 707.994 279.969 706.977C280.457 705.955 281.134 705.159 281.997 704.591C282.866 704.017 283.866 703.73 284.997 703.73C286.128 703.73 287.125 704.017 287.989 704.591C288.852 705.165 289.528 705.96 290.017 706.977C290.511 707.994 290.759 709.173 290.759 710.514C290.759 711.844 290.514 713.017 290.026 714.034C289.537 715.045 288.858 715.838 287.989 716.412C287.125 716.986 286.128 717.273 284.997 717.273ZM284.997 715.884C285.906 715.884 286.676 715.639 287.307 715.151C287.938 714.662 288.415 714.011 288.739 713.199C289.068 712.386 289.233 711.491 289.233 710.514C289.233 709.537 289.068 708.639 288.739 707.821C288.415 707.003 287.938 706.347 287.307 705.852C286.676 705.358 285.906 705.111 284.997 705.111C284.094 705.111 283.324 705.358 282.688 705.852C282.057 706.347 281.577 707.003 281.247 707.821C280.923 708.639 280.761 709.537 280.761 710.514C280.761 711.491 280.923 712.386 281.247 713.199C281.577 714.011 282.057 714.662 282.688 715.151C283.318 715.639 284.088 715.884 284.997 715.884ZM295.606 708.818V717H294.089V703.909H295.563V705.963H295.7C296.006 705.293 296.484 704.756 297.131 704.352C297.785 703.943 298.592 703.739 299.552 703.739C300.433 703.739 301.205 703.923 301.87 704.293C302.54 704.656 303.06 705.193 303.43 705.903C303.805 706.614 303.992 707.486 303.992 708.52V717H302.475V708.614C302.475 707.54 302.174 706.69 301.572 706.065C300.975 705.44 300.174 705.128 299.168 705.128C298.481 705.128 297.87 705.276 297.336 705.571C296.802 705.866 296.379 706.293 296.066 706.849C295.759 707.401 295.606 708.057 295.606 708.818Z" fill="white"/>
</g>
<defs>
<linearGradient id="paint0_linear_0_1712" x1="0" y1="0" x2="375" y2="812" gradientUnits="userSpaceOnUse">
<stop stop-color="#0700FF"/>
<stop offset="1"/>
</linearGradient>
<clipPath id="clip0_0_1712">
<rect width="375" height="812" fill="white"/>
</clipPath>
<clipPath id="clip1_0_1712">
<rect width="78" height="16" fill="white" transform="translate(4 3)"/>
</clipPath>
</defs>
</svg>
